<svg width="12" height="12" viewBox="0 0 12 12" fill="none" xmlns="http://www.w3.org/2000/svg">
<g clip-path="url(#clip0_53_74)">
<path d="M11 1.12501H9.375V0.375006C9.37507 0.27555 9.33562 0.180141 9.26534 0.109768C9.19506 0.0393947 9.09971 -0.000177747 9.00025 -0.000244052C8.90079 -0.000310356 8.80538 0.0391349 8.73501 0.109414C8.66464 0.179693 8.62507 0.27505 8.625 0.374506V1.12501H6.375V0.375006C6.37503 0.32576 6.36537 0.27699 6.34655 0.231481C6.32774 0.185971 6.30014 0.144613 6.26534 0.109768C6.23054 0.0749225 6.18922 0.0472726 6.14374 0.0283968C6.09825 0.00952094 6.0495 -0.000211227 6.00025 -0.000244057C5.90079 -0.000310361 5.80538 0.0391349 5.73501 0.109414C5.66464 0.179693 5.62507 0.27505 5.625 0.374506V1.12501H3.375V0.375006C3.37503 0.32576 3.36537 0.27699 3.34655 0.231481C3.32774 0.185971 3.30014 0.144613 3.26534 0.109768C3.23054 0.0749225 3.18922 0.0472726 3.14374 0.0283968C3.09825 0.00952094 3.0495 -0.000211227 3.00025 -0.000244057C2.90079 -0.000310361 2.80538 0.0391349 2.73501 0.109414C2.66464 0.179693 2.62507 0.27505 2.625 0.374506V1.12501H1C0.73487 1.12501 0.480592 1.23029 0.29307 1.41772C0.105548 1.60515 0.000132565 1.85938 0 2.12451V10.9995C0 11.2647 0.105357 11.5191 0.292893 11.7066C0.48043 11.8941 0.734784 11.9995 1 11.9995H11C11.2652 11.9995 11.5196 11.8941 11.7071 11.7066C11.8946 11.5191 12 11.2647 12 10.9995V2.12451C11.9999 1.85938 11.8945 1.60515 11.7069 1.41772C11.5194 1.23029 11.2651 1.12501 11 1.12501ZM11.25 11C11.25 11.0662 11.2237 11.1297 11.177 11.1766C11.1302 11.2235 11.0667 11.2499 11.0005 11.25H1C0.933696 11.25 0.870107 11.2237 0.823223 11.1768C0.776339 11.1299 0.75 11.0663 0.75 11V2.12501C0.750132 2.05879 0.77653 1.99533 0.8234 1.94855C0.87027 1.90178 0.933782 1.87551 1 1.87551H2.625V2.62551C2.62493 2.72496 2.66438 2.82037 2.73466 2.89074C2.80494 2.96112 2.90029 3.00069 2.99975 3.00076C3.09921 3.00082 3.19462 2.96138 3.26499 2.8911C3.33536 2.82082 3.37493 2.72546 3.375 2.62601V1.87551H5.625V2.62551C5.62493 2.72496 5.66438 2.82037 5.73466 2.89074C5.80494 2.96112 5.90029 3.00069 5.99975 3.00076C6.09921 3.00082 6.19462 2.96138 6.26499 2.8911C6.33536 2.82082 6.37493 2.72546 6.375 2.62601V1.87551H8.625V2.62551C8.62493 2.72496 8.66438 2.82037 8.73466 2.89074C8.80494 2.96112 8.90029 3.00069 8.99975 3.00076C9.09921 3.00082 9.19462 2.96138 9.26499 2.8911C9.33536 2.82082 9.37493 2.72546 9.375 2.62601V1.87551H11C11.0661 1.87564 11.1295 1.90197 11.1763 1.94873C11.223 1.99549 11.2494 2.05888 11.2495 2.12501L11.25 11Z" fill="#3F414E"/>
<path d="M2.625 4.5H4.125V5.625H2.625V4.5Z" fill="#3F414E"/>
<path d="M2.625 6.375H4.125V7.5H2.625V6.375Z" fill="#3F414E"/>
<path d="M2.625 8.25H4.125V9.375H2.625V8.25Z" fill="#3F414E"/>
<path d="M5.25 8.25H6.75V9.375H5.25V8.25Z" fill="#3F414E"/>
<path d="M5.25 6.375H6.75V7.5H5.25V6.375Z" fill="#3F414E"/>
<path d="M5.25 4.5H6.75V5.625H5.25V4.5Z" fill="#3F414E"/>
<path d="M7.875 8.25H9.375V9.375H7.875V8.25Z" fill="#3F414E"/>
<path d="M7.875 6.375H9.375V7.5H7.875V6.375Z" fill="#3F414E"/>
<path d="M7.875 4.5H9.375V5.625H7.875V4.5Z" fill="#3F414E"/>
</g>
<defs>
<clipPath id="clip0_53_74">
<rect width="12" height="12" fill="white"/>
</clipPath>
</defs>
</svg>
