<svg width="25" height="25" viewBox="0 0 25 25" fill="none" xmlns="http://www.w3.org/2000/svg">
<path d="M12.3062 17.8571C11.2302 17.8571 10.1784 17.5429 9.28376 16.9543C8.38912 16.3656 7.69184 15.5289 7.28008 14.5501C6.86832 13.5712 6.76059 12.494 6.9705 11.4548C7.18041 10.4157 7.69854 9.46111 8.45937 8.7119C9.2202 7.96269 10.1895 7.45247 11.2448 7.24576C12.3001 7.03905 13.394 7.14514 14.3881 7.55061C15.3821 7.95608 16.2318 8.64272 16.8295 9.5237C17.4273 10.4047 17.7464 11.4404 17.7464 12.5C17.7542 13.2056 17.6187 13.9057 17.3481 14.5591C17.0775 15.2125 16.677 15.8061 16.1703 16.3051C15.6636 16.8041 15.0608 17.1984 14.3972 17.4649C13.7337 17.7314 13.0228 17.8648 12.3062 17.8571ZM12.3062 8.92854C11.8269 8.9178 11.3504 9.00283 10.9055 9.17851C10.4605 9.35419 10.0563 9.61687 9.71735 9.95067C9.37837 10.2845 9.11163 10.6825 8.93322 11.1206C8.75482 11.5588 8.66846 12.028 8.67937 12.5C8.66846 12.9719 8.75482 13.4411 8.93322 13.8793C9.11163 14.3175 9.37837 14.7155 9.71735 15.0493C10.0563 15.3831 10.4605 15.6457 10.9055 15.8214C11.3504 15.9971 11.8269 16.0821 12.3062 16.0714C12.7854 16.0821 13.2619 15.9971 13.7069 15.8214C14.1519 15.6457 14.556 15.3831 14.895 15.0493C15.234 14.7155 15.5007 14.3175 15.6791 13.8793C15.8575 13.4411 15.9439 12.9719 15.933 12.5C15.9439 12.028 15.8575 11.5588 15.6791 11.1206C15.5007 10.6825 15.234 10.2845 14.895 9.95067C14.556 9.61687 14.1519 9.35419 13.7069 9.17851C13.2619 9.00283 12.7854 8.9178 12.3062 8.92854Z" fill="#3F414E"/>
<path d="M24.3698 8.075L22.23 4.425C22.0205 4.06713 21.6914 3.79192 21.2989 3.64635C20.9063 3.50078 20.4746 3.49386 20.0775 3.62679L17.8706 4.36161C17.4902 4.10946 17.0928 3.88333 16.681 3.68482L16.2249 1.43571C16.1427 1.03075 15.9205 0.666364 15.5962 0.404589C15.2718 0.142814 14.8653 -0.000163433 14.446 1.40196e-07H10.1663C9.74696 -0.000163433 9.34049 0.142814 9.01613 0.404589C8.69177 0.666364 8.46958 1.03075 8.38738 1.43571L7.93131 3.68482C7.51488 3.88115 7.11284 4.1058 6.72812 4.35714L4.5339 3.62679C4.13698 3.49433 3.70571 3.50148 3.31355 3.64703C2.92138 3.79258 2.5926 4.06751 2.3832 4.425L0.243386 8.075C0.033767 8.4324 -0.0436571 8.85028 0.0242822 9.25755C0.0922215 9.66482 0.301329 10.0363 0.616041 10.3089L2.36688 11.8241C2.35147 12.0491 2.33243 12.2723 2.33243 12.5C2.33243 12.7304 2.34149 12.958 2.35781 13.1839L0.616947 14.6911C0.301942 14.9634 0.0924868 15.3348 0.024215 15.7421C-0.0440568 16.1494 0.0330718 16.5674 0.24248 16.925L2.3823 20.575C2.59162 20.933 2.92065 21.2084 3.31322 21.3542C3.70578 21.4999 4.13755 21.507 4.53481 21.3741L6.74172 20.6384C7.12191 20.891 7.51939 21.1174 7.93131 21.3161L8.38738 23.5643C8.46958 23.9692 8.69177 24.3336 9.01613 24.5954C9.34049 24.8572 9.74696 25.0002 10.1663 25H14.1196V23.2143H10.1663L9.52257 20.0446C8.63203 19.7189 7.80535 19.244 7.07901 18.6411L3.95361 19.6821L1.81379 16.0321L4.28456 13.8938C4.11552 12.9704 4.11337 12.025 4.27821 11.1009L1.81379 8.96786L3.95361 5.31786L7.06088 6.35357C7.7924 5.74976 8.62551 5.27656 9.52257 4.95536L10.1663 1.78571H14.446L15.0897 4.95536C15.9802 5.28117 16.8069 5.75601 17.5333 6.35893L20.6587 5.31786L22.7985 8.96786L20.2615 11.1571L21.4566 12.5L23.9953 10.3089C24.3104 10.0366 24.5198 9.66516 24.5881 9.25788C24.6563 8.85059 24.5792 8.4326 24.3698 8.075Z" fill="#3F414E"/>
<path d="M18.6531 21.5894L16.3047 19.2769L15.0262 20.5358L18.6531 24.1073L25 17.8573L23.7215 16.5983L18.6531 21.5894Z" fill="#3F414E"/>
</svg>
