<svg width="31" height="31" viewBox="0 0 31 31" fill="none" xmlns="http://www.w3.org/2000/svg">
<path d="M2.73837 17.4711C3.69679 23.6465 9.07012 28.4115 15.5013 28.4115C22.6042 28.4115 28.4154 22.6003 28.4154 15.4974C28.4154 8.39452 22.6055 2.58331 15.5026 2.58331C11.2427 2.58331 7.49429 4.65127 5.16671 7.74998V2.5846L2.58725 2.58331L2.58337 11.625H11.625V9.04165L7.493 9.04035C9.30004 6.71794 12.2735 5.16665 15.5026 5.16665C21.1834 5.16665 25.8334 9.81665 25.8334 15.4974C25.8334 21.1781 21.1834 25.8294 15.5013 25.8294C10.4922 25.8294 6.28917 22.2205 5.36304 17.4711H2.73837Z" fill="#3F414E"/>
<path d="M14.2109 9.04041V15.8888L18.3456 21.4391L20.4122 19.893L16.7943 15.1125V9.04041H14.2109Z" fill="#3F414E"/>
</svg>
