<svg width="16" height="16" viewBox="0 0 16 16" fill="none" xmlns="http://www.w3.org/2000/svg">
<path d="M14.7656 6.4375H10.7656C10.6968 6.4375 10.6406 6.49375 10.6406 6.5625V7.3125C10.6406 7.38125 10.6968 7.4375 10.7656 7.4375H14.7656C14.8343 7.4375 14.8906 7.38125 14.8906 7.3125V6.5625C14.8906 6.49375 14.8343 6.4375 14.7656 6.4375ZM12.6718 8.5625H10.7656C10.6968 8.5625 10.6406 8.61875 10.6406 8.6875V9.4375C10.6406 9.50625 10.6968 9.5625 10.7656 9.5625H12.6718C12.7406 9.5625 12.7968 9.50625 12.7968 9.4375V8.6875C12.7968 8.61875 12.7406 8.5625 12.6718 8.5625ZM7.45776 5.03906H6.7812C6.68433 5.03906 6.6062 5.11719 6.6062 5.21406V9.08906C6.6062 9.14531 6.63276 9.19688 6.67808 9.22969L9.00464 10.9266C9.08276 10.9828 9.19214 10.9672 9.24839 10.8891L9.64995 10.3406V10.3391C9.7062 10.2609 9.68901 10.1516 9.61089 10.0953L7.6312 8.66406V5.21406C7.63276 5.11719 7.55308 5.03906 7.45776 5.03906Z" fill="#3F414E"/>
<path d="M12.575 10.5297H11.6719C11.5844 10.5297 11.5016 10.575 11.4547 10.65C11.2563 10.9641 11.025 11.2547 10.7594 11.5203C10.3016 11.9781 9.76876 12.3375 9.17657 12.5875C8.56251 12.8469 7.91095 12.9781 7.23907 12.9781C6.56564 12.9781 5.91407 12.8469 5.30157 12.5875C4.70939 12.3375 4.17657 11.9781 3.71876 11.5203C3.26095 11.0625 2.90157 10.5297 2.65157 9.93751C2.3922 9.32501 2.26095 8.67345 2.26095 8.00001C2.26095 7.32658 2.3922 6.67658 2.65157 6.06251C2.90157 5.47033 3.26095 4.93751 3.71876 4.4797C4.17657 4.02189 4.70939 3.66251 5.30157 3.41251C5.91407 3.15314 6.5672 3.02189 7.23907 3.02189C7.91251 3.02189 8.56407 3.15314 9.17657 3.41251C9.76876 3.66251 10.3016 4.02189 10.7594 4.4797C11.025 4.74533 11.2563 5.03595 11.4547 5.35001C11.5016 5.42501 11.5844 5.47033 11.6719 5.47033H12.575C12.6828 5.47033 12.7516 5.35783 12.7031 5.26251C11.6844 3.23595 9.61876 1.91876 7.31251 1.8922C3.93595 1.85001 1.13126 4.61408 1.12501 7.98751C1.11876 11.3672 3.85782 14.1094 7.23751 14.1094C9.57345 14.1094 11.6734 12.7875 12.7031 10.7375C12.7516 10.6422 12.6813 10.5297 12.575 10.5297Z" fill="#3F414E"/>
</svg>
